<svg xmlns="http://www.w3.org/2000/svg" width="312" height="52" viewBox="0 0 312 52" role="img" aria-label="Java, Python, TypeScript, JavaScript e Kotlin"><g transform="translate(0 0)"><rect x=".5" y=".5" width="51" height="51" rx="12" fill="#21192D" stroke="#4B375F"/><g font-family="Arial,Helvetica,sans-serif" fill="none" stroke="#CEB0F3" stroke-width="1.8" stroke-linecap="round" stroke-linejoin="round"><path d="M14 24H35V32Q35 39 25 39Q15 39 15 32ZM35 26H39Q43 31 35 32"/><path d="M21 19Q16 14 23 10M28 19Q23 13 30 8"/></g></g><g transform="translate(65 0)"><rect x=".5" y=".5" width="51" height="51" rx="12" fill="#21192D" stroke="#4B375F"/><g font-family="Arial,Helvetica,sans-serif" fill="none" stroke="#CEB0F3" stroke-width="1.8" stroke-linecap="round" stroke-linejoin="round"><text x="26" y="34" text-anchor="middle" font-size="23" font-weight="700" stroke="none" fill="#DCC6FF">Py</text></g></g><g transform="translate(130 0)"><rect x=".5" y=".5" width="51" height="51" rx="12" fill="#21192D" stroke="#4B375F"/><g font-family="Arial,Helvetica,sans-serif" fill="none" stroke="#CEB0F3" stroke-width="1.8" stroke-linecap="round" stroke-linejoin="round"><text x="26" y="34" text-anchor="middle" font-size="23" font-weight="700" stroke="none" fill="#DCC6FF">TS</text></g></g><g transform="translate(195 0)"><rect x=".5" y=".5" width="51" height="51" rx="12" fill="#21192D" stroke="#4B375F"/><g font-family="Arial,Helvetica,sans-serif" fill="none" stroke="#CEB0F3" stroke-width="1.8" stroke-linecap="round" stroke-linejoin="round"><text x="26" y="34" text-anchor="middle" font-size="23" font-weight="700" stroke="none" fill="#DCC6FF">JS</text></g></g><g transform="translate(260 0)"><rect x=".5" y=".5" width="51" height="51" rx="12" fill="#21192D" stroke="#4B375F"/><g font-family="Arial,Helvetica,sans-serif" fill="none" stroke="#CEB0F3" stroke-width="1.8" stroke-linecap="round" stroke-linejoin="round"><path d="M14 13V40H40L27 27L40 13Z" fill="#B28DDC" stroke="none"/></g></g></svg>