<svg xmlns="http://www.w3.org/2000/svg" width="247" height="52" viewBox="0 0 247 52" role="img" aria-label="Android, Firebase, Git e GitHub"><g transform="translate(0 0)"><rect x=".5" y=".5" width="51" height="51" rx="12" fill="#21192D" stroke="#4B375F"/><g font-family="Arial,Helvetica,sans-serif" fill="none" stroke="#CEB0F3" stroke-width="1.8" stroke-linecap="round" stroke-linejoin="round"><path d="M12 26A14 14 0 0140 26Z"/><path d="M17 15L13 9M35 15L39 9M12 31H40V42H12Z"/><circle cx="20" cy="21" r="1" fill="#DCC6FF"/><circle cx="32" cy="21" r="1" fill="#DCC6FF"/></g></g><g transform="translate(65 0)"><rect x=".5" y=".5" width="51" height="51" rx="12" fill="#21192D" stroke="#4B375F"/><g font-family="Arial,Helvetica,sans-serif" fill="none" stroke="#CEB0F3" stroke-width="1.8" stroke-linecap="round" stroke-linejoin="round"><path d="M13 39L20 9L28 23L35 15L42 39L27 47Z" fill="#BDA1E0" stroke="none"/></g></g><g transform="translate(130 0)"><rect x=".5" y=".5" width="51" height="51" rx="12" fill="#21192D" stroke="#4B375F"/><g font-family="Arial,Helvetica,sans-serif" fill="none" stroke="#CEB0F3" stroke-width="1.8" stroke-linecap="round" stroke-linejoin="round"><circle cx="18" cy="11" r="4"/><circle cx="37" cy="16" r="4"/><circle cx="18" cy="42" r="4"/><path d="M18 15V38M18 33C18 24 37 32 37 20"/></g></g><g transform="translate(195 0)"><rect x=".5" y=".5" width="51" height="51" rx="12" fill="#21192D" stroke="#4B375F"/><g font-family="Arial,Helvetica,sans-serif" fill="none" stroke="#CEB0F3" stroke-width="1.8" stroke-linecap="round" stroke-linejoin="round"><text x="26" y="33" text-anchor="middle" font-size="20" font-weight="700" stroke="none" fill="#DCC6FF">GH</text></g></g></svg>